<svg width="79" height="75" viewBox="0 0 79 75" fill="none" xmlns="http://www.w3.org/2000/svg">
<path fill-rule="evenodd" clip-rule="evenodd" d="M72.1396 21.5136C73.2529 22.3302 73.4933 23.8948 72.6767 25.0081L59.368 43.15C58.5513 44.2633 56.9868 44.5037 55.8735 43.687C54.7602 42.8703 54.5198 41.3058 55.3365 40.1925L65.0751 26.9171L58.0706 27.9935C55.7503 28.3501 53.9236 30.1605 53.5461 32.4775L53.0747 35.3709C51.7905 43.2538 41.7252 45.815 36.8293 39.5046C35.2251 37.4368 31.9663 39.2401 32.8661 41.6976L34.6958 46.6948C37.945 55.5692 28.5158 63.7627 20.1817 59.3067L4.72565 51.0428L7.08318 46.6335L22.5392 54.8974C26.8236 57.1881 31.671 52.976 30.0006 48.4139L28.1709 43.4167C25.3082 35.598 35.676 29.8612 40.7798 36.4397C42.9979 39.2986 47.5579 38.1383 48.1398 34.5669L48.6111 31.6735C49.337 27.2182 52.8495 23.7372 57.3112 23.0516L64.3157 21.9751L51.0402 12.2365C49.9269 11.4198 49.6865 9.85523 50.5032 8.74195C51.3199 7.62867 52.8844 7.38823 53.9977 8.20492L72.1396 21.5136Z" fill="#07FFE1"/>
</svg>
